<svg width="81" height="81" fill="none" xmlns="http://www.w3.org/2000/svg"><path d="M40.5 81C63.0796 81 81 62.7212 81 40.5C81 17.9204 62.7212 0 40.5 0C17.9203 0 0 18.2788 0 40.5C0 62.7212 18.2788 81 40.5 81Z" fill="#213147"/><mask id="a" style="mask-type:luminance" maskUnits="userSpaceOnUse" x="18" y="14" width="46" height="53"><path d="M63.9474 14.3754H18.1184V66.0704H63.9474V14.3754Z" fill="white"/></mask><g mask="url(#a)"><path d="M19.8586 30.0896V50.3561C19.8586 51.6501 20.5503 52.8464 21.6706 53.4913L39.2256 63.6268C40.3459 64.2717 41.725 64.2717 42.8453 63.6268L60.4004 53.4913C61.5204 52.8464 62.2123 51.6501 62.2123 50.3561V30.0896C62.2123 28.7957 61.5204 27.5993 60.4004 26.9544L42.8453 16.819C41.725 16.1742 40.3459 16.1742 39.2256 16.819L21.6663 26.9544C20.5461 27.5993 19.8586 28.7957 19.8586 30.0896Z" fill="#213147"/><path d="M44.8646 44.1536L42.361 51.0179C42.2931 51.209 42.2931 51.4169 42.361 51.6075L46.668 63.4189L51.6498 60.5423L45.6708 44.1536C45.5351 43.776 45.0004 43.776 44.8646 44.1536Z" fill="#12AAFF"/><path d="M49.8844 32.6096C49.7487 32.2321 49.214 32.2321 49.0782 32.6096L46.5746 39.4741C46.5067 39.665 46.5067 39.8728 46.5746 40.0638L53.6314 59.401L58.6131 56.5248L49.8844 32.6096Z" fill="#12AAFF"/><path d="M41.0329 17.5785C41.1559 17.5785 41.279 17.6124 41.3893 17.6718L60.387 28.6387C60.6077 28.766 60.7437 29.0036 60.7437 29.2539V51.1833C60.7437 51.4381 60.6077 51.6713 60.387 51.7985L41.3893 62.7656C41.2833 62.829 41.1559 62.8587 41.0329 62.8587C40.9098 62.8587 40.7868 62.825 40.6764 62.7656L21.6786 51.807C21.458 51.6798 21.3222 51.4422 21.3222 51.1918V29.2581C21.3222 29.0036 21.458 28.7702 21.6786 28.6429L40.6764 17.676C40.7868 17.6124 40.9098 17.5785 41.0329 17.5785ZM41.0329 14.3754C40.3582 14.3754 39.6792 14.5493 39.0724 14.9014L20.0789 25.8641C18.8653 26.5641 18.1184 27.8581 18.1184 29.2581V51.1877C18.1184 52.5875 18.8653 53.8817 20.0789 54.5816L39.0767 65.5487C39.6835 65.8966 40.3582 66.0748 41.0371 66.0748C41.7118 66.0748 42.3908 65.9007 42.9976 65.5487L61.9954 54.5816C63.209 53.8817 63.9558 52.5875 63.9558 51.1877V29.2581C63.9558 27.8581 63.209 26.5641 61.9954 25.8641L42.9933 14.9014C42.3865 14.5493 41.7076 14.3754 41.0329 14.3754Z" fill="#9DCCED"/><path d="M28.4678 59.4267L30.2161 54.6411L33.7339 57.5642L30.4452 60.568L28.4678 59.4267Z" fill="#213147"/><path d="M39.4329 27.6884H34.6166C34.2559 27.6884 33.9334 27.9132 33.8103 28.2526L23.4861 56.5501L28.4679 59.4267L39.836 28.2653C39.9421 27.9853 39.7342 27.6884 39.4329 27.6884Z" fill="white"/><path d="M47.8607 27.6884H43.0444C42.6837 27.6884 42.3612 27.9132 42.2381 28.2526L30.45 60.5636L35.4317 63.4402L48.2638 28.2653C48.3657 27.9853 48.1577 27.6884 47.8607 27.6884Z" fill="white"/></g></svg>